<mxfile host="Electron" agent="Mozilla/5.0 (Windows NT 10.0; Win64; x64) AppleWebKit/537.36 (KHTML, like Gecko) draw.io/28.0.6 Chrome/138.0.7204.100 Electron/37.2.3 Safari/537.36" version="28.0.6">
  <diagram name="Page-1" id="NcdbI2Sq69eZBJ7KqdpM">
    <mxGraphModel dx="3044" dy="2394" grid="1" gridSize="10" guides="1" tooltips="1" connect="1" arrows="1" fold="1" page="1" pageScale="1" pageWidth="850" pageHeight="1100" math="0" shadow="0">
      <root>
        <mxCell id="0" />
        <mxCell id="1" parent="0" />
        <mxCell id="MQ6-ZaQWyRQFUZGdXXzv-1" value="crm_cust_info" style="swimlane;fontStyle=0;childLayout=stackLayout;horizontal=1;startSize=30;horizontalStack=0;resizeParent=1;resizeParentMax=0;resizeLast=0;collapsible=1;marginBottom=0;whiteSpace=wrap;html=1;rounded=1;fillColor=#dae8fc;strokeColor=#6c8ebf;fontSize=26;" parent="1" vertex="1">
          <mxGeometry x="50" y="440" width="280" height="110" as="geometry" />
        </mxCell>
        <mxCell id="MQ6-ZaQWyRQFUZGdXXzv-2" value="cst_id" style="text;strokeColor=none;fillColor=none;align=left;verticalAlign=middle;spacingLeft=4;spacingRight=4;overflow=hidden;points=[[0,0.5],[1,0.5]];portConstraint=eastwest;rotatable=0;whiteSpace=wrap;html=1;rounded=1;fontSize=26;" parent="MQ6-ZaQWyRQFUZGdXXzv-1" vertex="1">
          <mxGeometry y="30" width="280" height="40" as="geometry" />
        </mxCell>
        <mxCell id="MQ6-ZaQWyRQFUZGdXXzv-24" value="cst_key" style="text;strokeColor=none;fillColor=none;align=left;verticalAlign=middle;spacingLeft=4;spacingRight=4;overflow=hidden;points=[[0,0.5],[1,0.5]];portConstraint=eastwest;rotatable=0;whiteSpace=wrap;html=1;rounded=1;fontSize=26;" parent="MQ6-ZaQWyRQFUZGdXXzv-1" vertex="1">
          <mxGeometry y="70" width="280" height="40" as="geometry" />
        </mxCell>
        <mxCell id="MQ6-ZaQWyRQFUZGdXXzv-5" value="&lt;font style=&quot;font-size: 20px;&quot;&gt;Customer Information&lt;/font&gt;" style="text;html=1;align=center;verticalAlign=middle;whiteSpace=wrap;rounded=0;" parent="1" vertex="1">
          <mxGeometry x="92.5" y="400" width="195" height="30" as="geometry" />
        </mxCell>
        <mxCell id="MQ6-ZaQWyRQFUZGdXXzv-6" value="&lt;font style=&quot;font-size: 40px;&quot;&gt;Integration Model&lt;/font&gt; (&lt;font style=&quot;font-size: 20px;&quot;&gt;how to tables are related&lt;/font&gt;)" style="text;html=1;align=center;verticalAlign=middle;resizable=0;points=[];autosize=1;strokeColor=none;fillColor=none;" parent="1" vertex="1">
          <mxGeometry x="-560" y="-150" width="560" height="60" as="geometry" />
        </mxCell>
        <mxCell id="MQ6-ZaQWyRQFUZGdXXzv-7" value="crm_prd_info" style="swimlane;fontStyle=0;childLayout=stackLayout;horizontal=1;startSize=30;horizontalStack=0;resizeParent=1;resizeParentMax=0;resizeLast=0;collapsible=1;marginBottom=0;whiteSpace=wrap;html=1;rounded=1;fillColor=#dae8fc;strokeColor=#6c8ebf;fontSize=26;" parent="1" vertex="1">
          <mxGeometry x="50" y="270" width="280" height="70" as="geometry" />
        </mxCell>
        <mxCell id="MQ6-ZaQWyRQFUZGdXXzv-8" value="prd_key" style="text;strokeColor=none;fillColor=none;align=left;verticalAlign=middle;spacingLeft=4;spacingRight=4;overflow=hidden;points=[[0,0.5],[1,0.5]];portConstraint=eastwest;rotatable=0;whiteSpace=wrap;html=1;rounded=1;fontSize=26;" parent="MQ6-ZaQWyRQFUZGdXXzv-7" vertex="1">
          <mxGeometry y="30" width="280" height="40" as="geometry" />
        </mxCell>
        <mxCell id="MQ6-ZaQWyRQFUZGdXXzv-9" value="&lt;font style=&quot;font-size: 20px;&quot;&gt;Current &amp;amp; History&amp;nbsp; Product Information&lt;/font&gt;" style="text;html=1;align=center;verticalAlign=middle;whiteSpace=wrap;rounded=0;" parent="1" vertex="1">
          <mxGeometry x="60" y="220" width="260" height="40" as="geometry" />
        </mxCell>
        <mxCell id="MQ6-ZaQWyRQFUZGdXXzv-10" value="crm_sales_details" style="swimlane;fontStyle=0;childLayout=stackLayout;horizontal=1;startSize=30;horizontalStack=0;resizeParent=1;resizeParentMax=0;resizeLast=0;collapsible=1;marginBottom=0;whiteSpace=wrap;html=1;rounded=1;fillColor=#dae8fc;strokeColor=#6c8ebf;fontSize=26;" parent="1" vertex="1">
          <mxGeometry x="-380" y="310" width="280" height="130" as="geometry" />
        </mxCell>
        <mxCell id="MQ6-ZaQWyRQFUZGdXXzv-11" value="&lt;div&gt;&lt;span style=&quot;background-color: transparent; color: light-dark(rgb(0, 0, 0), rgb(255, 255, 255));&quot;&gt;prd_key&lt;/span&gt;&lt;/div&gt;" style="text;strokeColor=none;fillColor=none;align=left;verticalAlign=middle;spacingLeft=4;spacingRight=4;overflow=hidden;points=[[0,0.5],[1,0.5]];portConstraint=eastwest;rotatable=0;whiteSpace=wrap;html=1;rounded=1;fontSize=26;" parent="MQ6-ZaQWyRQFUZGdXXzv-10" vertex="1">
          <mxGeometry y="30" width="280" height="50" as="geometry" />
        </mxCell>
        <mxCell id="MQ6-ZaQWyRQFUZGdXXzv-18" value="cust_id" style="text;strokeColor=none;fillColor=none;align=left;verticalAlign=middle;spacingLeft=4;spacingRight=4;overflow=hidden;points=[[0,0.5],[1,0.5]];portConstraint=eastwest;rotatable=0;whiteSpace=wrap;html=1;rounded=1;fontSize=26;" parent="MQ6-ZaQWyRQFUZGdXXzv-10" vertex="1">
          <mxGeometry y="80" width="280" height="50" as="geometry" />
        </mxCell>
        <mxCell id="MQ6-ZaQWyRQFUZGdXXzv-12" value="&lt;font style=&quot;font-size: 20px;&quot;&gt;Transactional Record about Sales &amp;amp; Orders&lt;/font&gt;" style="text;html=1;align=center;verticalAlign=middle;whiteSpace=wrap;rounded=0;" parent="1" vertex="1">
          <mxGeometry x="-370" y="260" width="260" height="40" as="geometry" />
        </mxCell>
        <mxCell id="MQ6-ZaQWyRQFUZGdXXzv-19" style="edgeStyle=orthogonalEdgeStyle;rounded=0;orthogonalLoop=1;jettySize=auto;html=1;entryX=-0.006;entryY=0.319;entryDx=0;entryDy=0;entryPerimeter=0;" parent="1" source="MQ6-ZaQWyRQFUZGdXXzv-11" target="MQ6-ZaQWyRQFUZGdXXzv-8" edge="1">
          <mxGeometry relative="1" as="geometry" />
        </mxCell>
        <mxCell id="MQ6-ZaQWyRQFUZGdXXzv-20" style="edgeStyle=orthogonalEdgeStyle;rounded=0;orthogonalLoop=1;jettySize=auto;html=1;entryX=0;entryY=0.5;entryDx=0;entryDy=0;" parent="1" source="MQ6-ZaQWyRQFUZGdXXzv-18" target="MQ6-ZaQWyRQFUZGdXXzv-2" edge="1">
          <mxGeometry relative="1" as="geometry" />
        </mxCell>
        <mxCell id="MQ6-ZaQWyRQFUZGdXXzv-21" value="erp_cust_az12" style="swimlane;fontStyle=0;childLayout=stackLayout;horizontal=1;startSize=30;horizontalStack=0;resizeParent=1;resizeParentMax=0;resizeLast=0;collapsible=1;marginBottom=0;whiteSpace=wrap;html=1;rounded=1;fillColor=#fff2cc;strokeColor=#d6b656;fontSize=26;" parent="1" vertex="1">
          <mxGeometry x="540" y="480" width="280" height="70" as="geometry" />
        </mxCell>
        <mxCell id="MQ6-ZaQWyRQFUZGdXXzv-22" value="cid" style="text;strokeColor=none;fillColor=none;align=left;verticalAlign=middle;spacingLeft=4;spacingRight=4;overflow=hidden;points=[[0,0.5],[1,0.5]];portConstraint=eastwest;rotatable=0;whiteSpace=wrap;html=1;rounded=1;fontSize=26;" parent="MQ6-ZaQWyRQFUZGdXXzv-21" vertex="1">
          <mxGeometry y="30" width="280" height="40" as="geometry" />
        </mxCell>
        <mxCell id="MQ6-ZaQWyRQFUZGdXXzv-23" value="&lt;font style=&quot;font-size: 20px;&quot;&gt;Extra Customer Information (Birthdates)&lt;/font&gt;" style="text;html=1;align=center;verticalAlign=middle;whiteSpace=wrap;rounded=0;" parent="1" vertex="1">
          <mxGeometry x="550" y="430" width="260" height="40" as="geometry" />
        </mxCell>
        <mxCell id="MQ6-ZaQWyRQFUZGdXXzv-25" style="edgeStyle=orthogonalEdgeStyle;rounded=0;orthogonalLoop=1;jettySize=auto;html=1;entryX=1;entryY=0.5;entryDx=0;entryDy=0;" parent="1" source="MQ6-ZaQWyRQFUZGdXXzv-22" target="MQ6-ZaQWyRQFUZGdXXzv-24" edge="1">
          <mxGeometry relative="1" as="geometry" />
        </mxCell>
        <mxCell id="MQ6-ZaQWyRQFUZGdXXzv-26" value="erp_loc_a101" style="swimlane;fontStyle=0;childLayout=stackLayout;horizontal=1;startSize=30;horizontalStack=0;resizeParent=1;resizeParentMax=0;resizeLast=0;collapsible=1;marginBottom=0;whiteSpace=wrap;html=1;rounded=1;fillColor=#fff2cc;strokeColor=#d6b656;fontSize=26;" parent="1" vertex="1">
          <mxGeometry x="540" y="680" width="280" height="70" as="geometry" />
        </mxCell>
        <mxCell id="MQ6-ZaQWyRQFUZGdXXzv-27" value="cid" style="text;strokeColor=none;fillColor=none;align=left;verticalAlign=middle;spacingLeft=4;spacingRight=4;overflow=hidden;points=[[0,0.5],[1,0.5]];portConstraint=eastwest;rotatable=0;whiteSpace=wrap;html=1;rounded=1;fontSize=26;" parent="MQ6-ZaQWyRQFUZGdXXzv-26" vertex="1">
          <mxGeometry y="30" width="280" height="40" as="geometry" />
        </mxCell>
        <mxCell id="MQ6-ZaQWyRQFUZGdXXzv-28" value="&lt;font style=&quot;font-size: 20px;&quot;&gt;Extra Customer Information (Locations)&lt;/font&gt;" style="text;html=1;align=center;verticalAlign=middle;whiteSpace=wrap;rounded=0;" parent="1" vertex="1">
          <mxGeometry x="550" y="630" width="260" height="40" as="geometry" />
        </mxCell>
        <mxCell id="MQ6-ZaQWyRQFUZGdXXzv-30" style="edgeStyle=orthogonalEdgeStyle;rounded=0;orthogonalLoop=1;jettySize=auto;html=1;entryX=1;entryY=0.5;entryDx=0;entryDy=0;exitX=-0.006;exitY=0.162;exitDx=0;exitDy=0;exitPerimeter=0;" parent="1" source="MQ6-ZaQWyRQFUZGdXXzv-27" target="MQ6-ZaQWyRQFUZGdXXzv-24" edge="1">
          <mxGeometry relative="1" as="geometry">
            <Array as="points">
              <mxPoint x="330" y="717" />
            </Array>
          </mxGeometry>
        </mxCell>
        <mxCell id="MQ6-ZaQWyRQFUZGdXXzv-31" value="erb_px_cat_g1v2" style="swimlane;fontStyle=0;childLayout=stackLayout;horizontal=1;startSize=30;horizontalStack=0;resizeParent=1;resizeParentMax=0;resizeLast=0;collapsible=1;marginBottom=0;whiteSpace=wrap;html=1;rounded=1;fillColor=#fff2cc;strokeColor=#d6b656;fontSize=26;" parent="1" vertex="1">
          <mxGeometry x="510" y="270" width="280" height="70" as="geometry" />
        </mxCell>
        <mxCell id="MQ6-ZaQWyRQFUZGdXXzv-32" value="id" style="text;strokeColor=none;fillColor=none;align=left;verticalAlign=middle;spacingLeft=4;spacingRight=4;overflow=hidden;points=[[0,0.5],[1,0.5]];portConstraint=eastwest;rotatable=0;whiteSpace=wrap;html=1;rounded=1;fontSize=26;" parent="MQ6-ZaQWyRQFUZGdXXzv-31" vertex="1">
          <mxGeometry y="30" width="280" height="40" as="geometry" />
        </mxCell>
        <mxCell id="MQ6-ZaQWyRQFUZGdXXzv-33" value="&lt;font style=&quot;font-size: 20px;&quot;&gt;Product Categories&lt;/font&gt;" style="text;html=1;align=center;verticalAlign=middle;whiteSpace=wrap;rounded=0;" parent="1" vertex="1">
          <mxGeometry x="520" y="220" width="260" height="40" as="geometry" />
        </mxCell>
        <mxCell id="MQ6-ZaQWyRQFUZGdXXzv-34" style="edgeStyle=orthogonalEdgeStyle;rounded=0;orthogonalLoop=1;jettySize=auto;html=1;" parent="1" source="MQ6-ZaQWyRQFUZGdXXzv-32" target="MQ6-ZaQWyRQFUZGdXXzv-8" edge="1">
          <mxGeometry relative="1" as="geometry" />
        </mxCell>
        <mxCell id="MQ6-ZaQWyRQFUZGdXXzv-35" value="" style="rounded=1;whiteSpace=wrap;html=1;dashed=1;dashPattern=1 4;fillColor=none;" parent="1" vertex="1">
          <mxGeometry x="-410" y="170" width="780" height="440" as="geometry" />
        </mxCell>
        <mxCell id="MQ6-ZaQWyRQFUZGdXXzv-36" value="&lt;font style=&quot;font-size: 26px;&quot;&gt;CRM&lt;/font&gt;" style="rounded=1;whiteSpace=wrap;html=1;fillColor=#dae8fc;strokeColor=#6c8ebf;" parent="1" vertex="1">
          <mxGeometry x="-100" y="150" width="160" height="40" as="geometry" />
        </mxCell>
        <mxCell id="MQ6-ZaQWyRQFUZGdXXzv-37" value="" style="rounded=1;whiteSpace=wrap;html=1;fillColor=none;dashed=1;dashPattern=1 4;" parent="1" vertex="1">
          <mxGeometry x="450" y="170" width="410" height="640" as="geometry" />
        </mxCell>
        <mxCell id="MQ6-ZaQWyRQFUZGdXXzv-38" value="&lt;font style=&quot;font-size: 26px;&quot;&gt;ERP&lt;/font&gt;" style="rounded=1;whiteSpace=wrap;html=1;fillColor=#fff2cc;strokeColor=#d6b656;" parent="1" vertex="1">
          <mxGeometry x="605" y="150" width="120" height="40" as="geometry" />
        </mxCell>
        <mxCell id="EsADbpy8C4fEsPTPiUaI-1" value="&lt;font style=&quot;font-size: 26px;&quot;&gt;PRODUCT&lt;/font&gt;" style="text;html=1;strokeColor=#b85450;fillColor=#f8cecc;align=center;verticalAlign=middle;whiteSpace=wrap;overflow=hidden;" vertex="1" parent="1">
          <mxGeometry x="50" y="340" width="270" height="30" as="geometry" />
        </mxCell>
        <mxCell id="EsADbpy8C4fEsPTPiUaI-2" value="&lt;font style=&quot;font-size: 26px;&quot;&gt;PRODUCT&lt;/font&gt;" style="text;html=1;strokeColor=#b85450;fillColor=#f8cecc;align=center;verticalAlign=middle;whiteSpace=wrap;overflow=hidden;" vertex="1" parent="1">
          <mxGeometry x="515" y="340" width="270" height="30" as="geometry" />
        </mxCell>
        <mxCell id="EsADbpy8C4fEsPTPiUaI-3" value="&lt;font style=&quot;font-size: 26px;&quot;&gt;CUSTOMER&lt;/font&gt;" style="text;html=1;strokeColor=#82b366;fillColor=#d5e8d4;align=center;verticalAlign=middle;whiteSpace=wrap;overflow=hidden;" vertex="1" parent="1">
          <mxGeometry x="50" y="550" width="270" height="30" as="geometry" />
        </mxCell>
        <mxCell id="EsADbpy8C4fEsPTPiUaI-4" value="&lt;font style=&quot;font-size: 26px;&quot;&gt;CUSTOMER&lt;/font&gt;" style="text;html=1;strokeColor=#82b366;fillColor=#d5e8d4;align=center;verticalAlign=middle;whiteSpace=wrap;overflow=hidden;" vertex="1" parent="1">
          <mxGeometry x="550" y="550" width="270" height="30" as="geometry" />
        </mxCell>
        <mxCell id="EsADbpy8C4fEsPTPiUaI-5" value="&lt;font style=&quot;font-size: 26px;&quot;&gt;CUSTOMER&lt;/font&gt;" style="text;html=1;strokeColor=#82b366;fillColor=#d5e8d4;align=center;verticalAlign=middle;whiteSpace=wrap;overflow=hidden;" vertex="1" parent="1">
          <mxGeometry x="550" y="750" width="270" height="30" as="geometry" />
        </mxCell>
        <mxCell id="EsADbpy8C4fEsPTPiUaI-6" value="&lt;font style=&quot;font-size: 26px;&quot;&gt;SALES&lt;/font&gt;" style="text;html=1;strokeColor=#9673a6;fillColor=#e1d5e7;align=center;verticalAlign=middle;whiteSpace=wrap;overflow=hidden;" vertex="1" parent="1">
          <mxGeometry x="-375" y="440" width="270" height="30" as="geometry" />
        </mxCell>
      </root>
    </mxGraphModel>
  </diagram>
</mxfile>
